<?xml version="1.0" encoding="UTF-8" standalone="no"?>
<!-- Created with Inkscape (http://www.inkscape.org/) -->

<svg
   version="1.1"
   id="svg1"
   width="598.66724"
   height="649.35779"
   viewBox="0 0 598.66724 649.35779"
   sodipodi:docname="favicon.svg"
   inkscape:version="1.3 (0e150ed6c4, 2023-07-21)"
   inkscape:export-filename="favicon_1.svg"
   inkscape:export-xdpi="96"
   inkscape:export-ydpi="96"
   xmlns:inkscape="http://www.inkscape.org/namespaces/inkscape"
   xmlns:sodipodi="http://sodipodi.sourceforge.net/DTD/sodipodi-0.dtd"
   xmlns="http://www.w3.org/2000/svg"
   xmlns:svg="http://www.w3.org/2000/svg">
  <defs
     id="defs1" />
  <sodipodi:namedview
     id="namedview1"
     pagecolor="#ffffff"
     bordercolor="#000000"
     borderopacity="0.25"
     inkscape:showpageshadow="2"
     inkscape:pageopacity="0.0"
     inkscape:pagecheckerboard="0"
     inkscape:deskcolor="#d1d1d1"
     inkscape:zoom="0.70710678"
     inkscape:cx="854.18499"
     inkscape:cy="1042.9825"
     inkscape:window-width="1904"
     inkscape:window-height="1009"
     inkscape:window-x="0"
     inkscape:window-y="0"
     inkscape:window-maximized="0"
     inkscape:current-layer="svg1" />
  <g
     inkscape:label="Image"
     id="g1"
     inkscape:export-filename=".\favicon_1.png"
     inkscape:export-xdpi="96"
     inkscape:export-ydpi="96"
     transform="translate(-722.3678,-698.55115)">
    <path
       style="display:inline;fill:#000000;stroke:#000000;stroke-opacity:1"
       d="m 1320.5198,1031.7831 c 0,0 -16.6203,-14.8136 -30.3795,-24.8793 -7.6135,-5.5698 -14.727,-9.18444 -16.7722,-9.21988 -12.5803,-0.21803 -19.6557,-0.33291 -39.2401,0.033 -26.3615,0.4925 -56.2457,0.25363 -56.8346,0.98969 -1.022,1.2774 -6.3553,6.70659 -9.2615,8.75049 -2.9061,2.0439 -57.2935,43.3694 -55.2495,45.6687 0.9727,1.0943 18.8648,17.5948 35.4776,36.197 18.2957,20.4867 35.4206,43.1962 35.4206,43.1962 l 4.1198,140.9341 -170.4022,73.8944 -294.38222,-177.903 29.80807,-61.7233 44.58913,-100.2002 59.56072,-226.69443 -65.45294,-81.26567 90.45908,30.01996 165.31736,-25.38922 109.2695,44.13573 60.0294,51.5812 0.1129,86.17388 49.1576,40.15919 53.8937,49.02385 z"
       id="path1"
       sodipodi:nodetypes="cssssssscccccccccccccccc" />
    <path
       style="fill:#ffffff;stroke:#000000;stroke-opacity:1"
       d="m 860.97096,854.80601 19.59795,-70.42572 -0.0884,-9.43545 -1.19324,-6.58494 71.96272,30.17135 -19.43464,13.97152 -18.95201,12.31884 z"
       id="path2"
       sodipodi:nodetypes="cccccccc" />
    <path
       style="fill:#ffffff;stroke:#000000;stroke-opacity:1"
       d="m 892.72231,749.09124 31.94184,13.36063 41.11113,19.67452 100.58592,-4.83926 -13.1644,-26.13289 -12.8218,-21.12299 z"
       id="path3"
       sodipodi:nodetypes="ccccccc" />
    <path
       style="fill:#ffffff;stroke:#000000;stroke-opacity:1"
       d="m 1071.9637,739.72771 10.1651,20.57489 7.6365,20.43297 37.688,18.2392 28.3569,12.51865 -12.7721,-42.51479 z"
       id="path4"
       sodipodi:nodetypes="ccccccc" />
    <path
       style="fill:#ffffff;stroke:#000000;stroke-opacity:1"
       d="m 1173.0901,794.1693 18.1011,75.86318 3.2889,8.63608 -0.2651,-66.68901 z"
       id="path5"
       sodipodi:nodetypes="ccccc" />
    <path
       style="fill:#ffffff;stroke:#000000;stroke-opacity:1"
       d="m 1163.4375,927.28125 31.5273,-18.38572 22.3633,8.69822 51.3906,44.46875 -14.5322,-5.32493 z"
       id="path6"
       sodipodi:nodetypes="cccccc" />
    <path
       style="fill:#ffffff;stroke:#000000;stroke-opacity:1"
       d="m 1124.2812,856.46875 7.6542,-13.18431 5.6271,-11.78444 0.125,-3.65625 22.2542,9.42874 10.1833,39.69626 z"
       id="path7"
       sodipodi:nodetypes="ccccccc" />
    <path
       style="fill:#ffffff;stroke:#000000;stroke-opacity:1"
       d="M 1174.7812,976.65625 1169.625,952.73437 1234.4687,975 Z"
       id="path8"
       sodipodi:nodetypes="cccc" />
    <path
       style="fill:#ffffff;stroke:#000000;stroke-opacity:1"
       d="m 1109.3902,960.38572 -0.412,-15.50444 28.5058,-4.00628 6.8031,13.90181 z"
       id="path9"
       sodipodi:nodetypes="ccccc" />
    <path
       style="fill:#ffffff;stroke:#000000;stroke-opacity:1"
       d="m 1107.7812,981.8125 -0.7187,46.9062 45.5312,-40.7187 -0.375,-10.95313 z"
       id="path10"
       sodipodi:nodetypes="ccccc" />
    <path
       style="fill:#ffffff;stroke:#000000;stroke-opacity:1"
       d="m 1055.1435,1029.1863 30.5306,-30.57475 0.3977,42.14105 z"
       id="path11"
       sodipodi:nodetypes="cccc" />
    <path
       style="fill:#ffffff;stroke:#000000;stroke-opacity:1"
       d="m 1012.0908,1013.9911 59.1317,-73.84845 16.2193,6.54075 1.9446,19.40124 -37.1309,34.90866 -18.0234,20.555 z"
       id="path12"
       sodipodi:nodetypes="ccccccc" />
    <path
       style="fill:#ffffff;stroke:#000000;stroke-opacity:1"
       d="m 1031.0943,1042.5848 c 0.3977,0.6187 72.2807,78.1652 72.2807,78.1652 l 37.801,34.4819 21.6611,18.72 -1.4805,-33.3887 -29.5129,-36.3445 -14.9892,-16.1323 -20.2295,-20.2739 -32.857,-12.1391 z"
       id="path13"
       sodipodi:nodetypes="cccccccccc" />
    <path
       style="fill:#ffffff;stroke:#000000;stroke-opacity:1"
       d="m 832.34375,1007.9375 97.76683,-126.83826 59.19824,13.55039 63.97238,16.13162 1.0313,15.03125 -44.3128,55.21465 -20.20283,27.37905 z"
       id="path14"
       sodipodi:nodetypes="cccccccc" />
    <path
       style="fill:#ffffff;stroke:#000000;stroke-opacity:1"
       d="m 752.75,1160.3125 56.10937,-121.6719 36.53098,50.1492 60.0784,81.0227 78.02839,105.0126 16.06536,36.1436 -127.85938,-77.7968 z"
       id="path15"
       sodipodi:nodetypes="cccccccc" />
    <path
       style="fill:#ffffff;stroke:#000000;stroke-opacity:1"
       d="m 830.15625,1030 163.375,221.3437 87.39065,-120.9843 -90.7344,-100.5469 z"
       id="path16" />
    <path
       style="fill:#ffffff;stroke:#000000;stroke-opacity:1"
       d="m 1025.6079,1319.138 -19.5454,-48.513 90.7706,-125.3551 65.495,56.6207 2.4844,56.6094 z"
       id="path17"
       sodipodi:nodetypes="cccccc" />
    <path
       style="fill:#ffffff;stroke:#000000;stroke-opacity:1"
       d="m 829.4375,975.78125 22.18423,-90.06372 78.1353,-42.12809 72.45637,7.1484 c 0,0 6.8598,22.68005 8.6098,25.05505 1.75,2.375 -85.68932,-20.4545 -89.68932,-19.3295 -1.80198,0.50681 -19.79436,24.70168 -39.70113,51.23616 -24.2818,32.36611 -51.99525,68.0817 -51.99525,68.0817 z"
       id="path18"
       sodipodi:nodetypes="ccccsssc" />
    <path
       style="fill:#ffffff;stroke:#000000;stroke-opacity:1"
       d="m 952.60542,824.75167 53.56338,3.66812 30.0758,-23.0091 42.0655,2.94494 c 0,0 18.8774,8.26937 21.9399,11.14437 3.0625,2.875 10.1562,10.125 10.1562,10.125 l 6.9375,-9.125 -39.2656,-20 -100.28123,4.26562 z"
       id="path19"
       sodipodi:nodetypes="ccccsccccc" />
    <path
       style="fill:#ffffff;stroke:#000000;stroke-opacity:1"
       d="m 1077.5865,919.45978 0.1326,-6.85009 c 0,0 2.1213,-4.46361 4.9498,-5.48008 2.8284,-1.01647 26.4521,-11.30743 30.6064,-18.29011 4.1542,-6.98268 6.3841,-10.65707 6.3841,-10.65707 l 42.6032,18.51736 -29.1376,24.55021 c 0,0 -25.5306,4.44116 -33.7507,3.73406 -8.2202,-0.70711 -21.7878,-5.52428 -21.7878,-5.52428 z"
       id="path20"
       sodipodi:nodetypes="ccsscccsc" />
    <path
       style="fill:#ffffff;stroke:#000000;stroke-opacity:1"
       d="m 1089.4375,851.75 c 0,0 2.9375,15.8125 1.0625,19.75 -1.3289,2.79063 -10.8771,10.17096 -21.1816,13.57525 -3.8431,1.26968 -6.5352,3.72362 -8.9952,3.73909 -10.6472,0.0669 -29.008,-16.50974 -29.008,-16.50974 0,0 -9.2227,-22.35153 -7.3665,-28.09677 1.8561,-5.74524 17.5533,-17.90936 17.5533,-17.90936 0,0 17.3462,-0.70711 19.4675,1.10485 2.1213,1.81196 -3.0052,2.74004 -3.0052,2.74004 0,0 -7.6576,0.55936 -9.3812,1.53163 -1.7235,0.97227 -8.6709,6.83753 -10.5062,12.03598 -1.404,3.97669 -0.4861,12.81631 -0.4861,12.81631 0,0 3.4472,9.8995 7.734,12.68373 4.2868,2.78423 10.0138,6.21751 12.577,6.3501 2.5633,0.13258 11.7525,0.4558 15.3323,-2.63779 3.5797,-3.09359 18.8909,-13.42332 16.2034,-21.17332 z"
       id="path21"
       sodipodi:nodetypes="cssscscscsscsssc" />
    <path
       style="fill:#ffffff;stroke:#000000;stroke-opacity:1"
       d="m 1065.5,837.25 c 0,0 7.0625,6.875 6.75,8.75 -0.1338,0.8026 2.2957,5.84705 4.8326,6.13579 3.3897,0.38582 7.1674,-4.13579 7.1674,-4.13579 0,0 2.25,-10.25 -0.375,-12.3125 -2.625,-2.0625 -9.5,-5 -9.5,-5 0,0 -3.9375,-0.6875 -4.875,0.5625 -0.9375,1.25 -4,6 -4,6 z"
       id="path22"
       sodipodi:nodetypes="csscscsc" />
  </g>
</svg>
